<mxfile host="app.diagrams.net" modified="2021-10-12T12:17:00.122Z" agent="5.0 (Windows NT 10.0; Win64; x64) AppleWebKit/537.36 (KHTML, like Gecko) Chrome/94.0.4606.71 Safari/537.36" etag="3Degu7aXRgPqObJoG6ST" version="15.5.1" type="github">
  <diagram id="U01dwIv7Qpezd3be7zWT" name="Page-1">
    <mxGraphModel dx="1497" dy="836" grid="1" gridSize="10" guides="1" tooltips="1" connect="1" arrows="1" fold="1" page="1" pageScale="1" pageWidth="827" pageHeight="1169" math="0" shadow="0">
      <root>
        <mxCell id="0" />
        <mxCell id="1" parent="0" />
        <mxCell id="qErKGaGIaxqNtluI4b36-1" value="&lt;p style=&quot;line-height: 1.2&quot;&gt;&lt;font size=&quot;3&quot;&gt;start&lt;/font&gt;&lt;/p&gt;" style="rounded=1;whiteSpace=wrap;html=1;" vertex="1" parent="1">
          <mxGeometry x="340" y="20" width="120" height="60" as="geometry" />
        </mxCell>
        <mxCell id="qErKGaGIaxqNtluI4b36-2" value="" style="endArrow=none;html=1;rounded=0;fontSize=24;startArrow=none;" edge="1" parent="1" source="qErKGaGIaxqNtluI4b36-4">
          <mxGeometry width="50" height="50" relative="1" as="geometry">
            <mxPoint x="400" y="140" as="sourcePoint" />
            <mxPoint x="399.5" y="80" as="targetPoint" />
            <Array as="points" />
          </mxGeometry>
        </mxCell>
        <mxCell id="qErKGaGIaxqNtluI4b36-4" value="&lt;font size=&quot;3&quot;&gt;inmatning:&amp;nbsp;&lt;br&gt;ett slump tal&lt;br&gt;&lt;/font&gt;" style="rounded=0;whiteSpace=wrap;html=1;fontSize=24;" vertex="1" parent="1">
          <mxGeometry x="325" y="140" width="150" height="80" as="geometry" />
        </mxCell>
        <mxCell id="qErKGaGIaxqNtluI4b36-5" value="" style="endArrow=none;html=1;rounded=0;fontSize=24;" edge="1" parent="1" target="qErKGaGIaxqNtluI4b36-4">
          <mxGeometry width="50" height="50" relative="1" as="geometry">
            <mxPoint x="400" y="140" as="sourcePoint" />
            <mxPoint x="399.5" y="80" as="targetPoint" />
            <Array as="points" />
          </mxGeometry>
        </mxCell>
        <mxCell id="qErKGaGIaxqNtluI4b36-6" value="" style="endArrow=none;html=1;rounded=0;fontSize=9;exitX=0.5;exitY=1;exitDx=0;exitDy=0;" edge="1" parent="1" source="qErKGaGIaxqNtluI4b36-4" target="qErKGaGIaxqNtluI4b36-7">
          <mxGeometry width="50" height="50" relative="1" as="geometry">
            <mxPoint x="399.5" y="290" as="sourcePoint" />
            <mxPoint x="399.5" y="220" as="targetPoint" />
          </mxGeometry>
        </mxCell>
        <mxCell id="qErKGaGIaxqNtluI4b36-7" value="&lt;font size=&quot;3&quot;&gt;utmatning:&lt;br&gt;ange ett heltal mellan 1-100&lt;br&gt;&lt;/font&gt;" style="rounded=0;whiteSpace=wrap;html=1;fontSize=9;" vertex="1" parent="1">
          <mxGeometry x="340" y="270" width="120" height="60" as="geometry" />
        </mxCell>
        <mxCell id="qErKGaGIaxqNtluI4b36-9" value="" style="endArrow=none;html=1;rounded=0;fontSize=12;entryX=0.5;entryY=1;entryDx=0;entryDy=0;" edge="1" parent="1" target="qErKGaGIaxqNtluI4b36-7">
          <mxGeometry width="50" height="50" relative="1" as="geometry">
            <mxPoint x="400" y="400" as="sourcePoint" />
            <mxPoint x="440" y="330" as="targetPoint" />
          </mxGeometry>
        </mxCell>
        <mxCell id="qErKGaGIaxqNtluI4b36-10" value="inmatning:&lt;br&gt;heltalsvarabel tal" style="rounded=0;whiteSpace=wrap;html=1;fontSize=12;" vertex="1" parent="1">
          <mxGeometry x="340" y="400" width="120" height="60" as="geometry" />
        </mxCell>
        <mxCell id="qErKGaGIaxqNtluI4b36-11" value="" style="endArrow=classic;html=1;rounded=0;fontSize=12;" edge="1" parent="1" target="qErKGaGIaxqNtluI4b36-12">
          <mxGeometry width="50" height="50" relative="1" as="geometry">
            <mxPoint x="399.5" y="460" as="sourcePoint" />
            <mxPoint x="399.5" y="530" as="targetPoint" />
          </mxGeometry>
        </mxCell>
        <mxCell id="qErKGaGIaxqNtluI4b36-12" value="är talet lika med&amp;nbsp;&lt;br&gt;den slump talet" style="rhombus;whiteSpace=wrap;html=1;fontSize=12;" vertex="1" parent="1">
          <mxGeometry x="306" y="520" width="190" height="80" as="geometry" />
        </mxCell>
        <mxCell id="qErKGaGIaxqNtluI4b36-13" value="" style="endArrow=classic;html=1;rounded=0;fontSize=12;" edge="1" parent="1" target="qErKGaGIaxqNtluI4b36-14">
          <mxGeometry width="50" height="50" relative="1" as="geometry">
            <mxPoint x="496" y="560" as="sourcePoint" />
            <mxPoint x="560" y="560" as="targetPoint" />
          </mxGeometry>
        </mxCell>
        <mxCell id="qErKGaGIaxqNtluI4b36-14" value="utmatning:&lt;br&gt;talet är för låg." style="rounded=0;whiteSpace=wrap;html=1;fontSize=12;" vertex="1" parent="1">
          <mxGeometry x="600" y="530" width="120" height="60" as="geometry" />
        </mxCell>
        <mxCell id="qErKGaGIaxqNtluI4b36-15" value="Nej, talet är för låg" style="text;html=1;strokeColor=none;fillColor=none;align=center;verticalAlign=middle;whiteSpace=wrap;rounded=0;fontSize=12;" vertex="1" parent="1">
          <mxGeometry x="510" y="520" width="60" height="30" as="geometry" />
        </mxCell>
        <mxCell id="qErKGaGIaxqNtluI4b36-16" value="" style="endArrow=classic;html=1;rounded=0;fontSize=12;exitX=0;exitY=0.5;exitDx=0;exitDy=0;" edge="1" parent="1" source="qErKGaGIaxqNtluI4b36-12">
          <mxGeometry width="50" height="50" relative="1" as="geometry">
            <mxPoint x="276" y="558.95" as="sourcePoint" />
            <mxPoint x="210" y="558.95" as="targetPoint" />
          </mxGeometry>
        </mxCell>
        <mxCell id="qErKGaGIaxqNtluI4b36-18" value="utmatning:&lt;br&gt;Talet är för hög" style="rounded=0;whiteSpace=wrap;html=1;fontSize=12;" vertex="1" parent="1">
          <mxGeometry x="90" y="530" width="120" height="60" as="geometry" />
        </mxCell>
        <mxCell id="qErKGaGIaxqNtluI4b36-20" value="" style="endArrow=classic;html=1;rounded=0;fontSize=12;" edge="1" parent="1" target="qErKGaGIaxqNtluI4b36-21">
          <mxGeometry width="50" height="50" relative="1" as="geometry">
            <mxPoint x="400" y="600" as="sourcePoint" />
            <mxPoint x="400" y="680" as="targetPoint" />
          </mxGeometry>
        </mxCell>
        <mxCell id="qErKGaGIaxqNtluI4b36-21" value="Utmatning:&lt;br&gt;Det är rätt tal" style="rounded=0;whiteSpace=wrap;html=1;fontSize=12;" vertex="1" parent="1">
          <mxGeometry x="341" y="670.0000000000002" width="120" height="60" as="geometry" />
        </mxCell>
        <mxCell id="qErKGaGIaxqNtluI4b36-22" value="Nej, talet är för hög" style="text;html=1;strokeColor=none;fillColor=none;align=center;verticalAlign=middle;whiteSpace=wrap;rounded=0;fontSize=12;" vertex="1" parent="1">
          <mxGeometry x="240" y="520" width="60" height="30" as="geometry" />
        </mxCell>
        <mxCell id="qErKGaGIaxqNtluI4b36-23" value="" style="endArrow=classic;html=1;rounded=0;fontSize=12;" edge="1" parent="1" target="qErKGaGIaxqNtluI4b36-24">
          <mxGeometry width="50" height="50" relative="1" as="geometry">
            <mxPoint x="400" y="730" as="sourcePoint" />
            <mxPoint x="400" y="780" as="targetPoint" />
          </mxGeometry>
        </mxCell>
        <mxCell id="qErKGaGIaxqNtluI4b36-24" value="Utmatning:&lt;br&gt;Antal försök" style="rounded=0;whiteSpace=wrap;html=1;fontSize=12;" vertex="1" parent="1">
          <mxGeometry x="341" y="779.9999999999998" width="120" height="60" as="geometry" />
        </mxCell>
        <mxCell id="qErKGaGIaxqNtluI4b36-26" value="" style="endArrow=none;html=1;rounded=0;fontSize=12;" edge="1" parent="1">
          <mxGeometry width="50" height="50" relative="1" as="geometry">
            <mxPoint x="149.47" y="530" as="sourcePoint" />
            <mxPoint x="149" y="300" as="targetPoint" />
          </mxGeometry>
        </mxCell>
        <mxCell id="qErKGaGIaxqNtluI4b36-33" value="" style="endArrow=classic;html=1;rounded=0;fontSize=12;entryX=0;entryY=0.5;entryDx=0;entryDy=0;" edge="1" parent="1" target="qErKGaGIaxqNtluI4b36-7">
          <mxGeometry width="50" height="50" relative="1" as="geometry">
            <mxPoint x="150" y="300" as="sourcePoint" />
            <mxPoint x="200" y="250" as="targetPoint" />
          </mxGeometry>
        </mxCell>
        <mxCell id="qErKGaGIaxqNtluI4b36-35" value="" style="endArrow=none;html=1;rounded=0;fontSize=12;" edge="1" parent="1">
          <mxGeometry width="50" height="50" relative="1" as="geometry">
            <mxPoint x="660" y="530" as="sourcePoint" />
            <mxPoint x="660" y="300" as="targetPoint" />
          </mxGeometry>
        </mxCell>
        <mxCell id="qErKGaGIaxqNtluI4b36-36" value="" style="endArrow=classic;html=1;rounded=0;fontSize=12;entryX=1;entryY=0.5;entryDx=0;entryDy=0;" edge="1" parent="1" target="qErKGaGIaxqNtluI4b36-7">
          <mxGeometry width="50" height="50" relative="1" as="geometry">
            <mxPoint x="660" y="300" as="sourcePoint" />
            <mxPoint x="710" y="260" as="targetPoint" />
          </mxGeometry>
        </mxCell>
      </root>
    </mxGraphModel>
  </diagram>
</mxfile>
